<svg xmlns="http://www.w3.org/2000/svg" viewBox="0 0 841.9 595.3">
  <g fill="#61DAFB">
    <circle cx="420.9" cy="296.5" r="45.7"></circle>
    <path d="M520.5 78.1c-27.4-49-64.6-83.1-99.7-93.6C389.8-20.7 348 4.4 305.5 78.1c-27.4 49-64.6 83.1-99.7 93.6 39.6 10.5 80.9 35.7 123.4 109.4 27.4 49 64.6 83.1 99.7 93.6 39.6-10.5 80.9-35.7 123.4-109.4 27.3-49 64.5-83.1 99.6-93.6-39.6-10.5-80.9-35.7-123.4-109.4z"></path>
    <path d="M308.1 429.2c-49-27.4-83.1-64.6-93.6-99.7-10.5 39.6 4.6 81.4 78.3 123.9 49 27.4 83.1 64.6 93.6 99.7 10.5-39.6-4.6-81.4-78.3-123.9z"></path>
    <path d="M533.8 429.2c-49 27.4-83.1 64.6-93.6 99.7-10.5-39.6 4.6-81.4 78.3-123.9 49-27.4 83.1-64.6 93.6-99.7 10.5 39.6-4.6 81.4-78.3 123.9z"></path>
  </g>
</svg>
